<?xml version="1.0" encoding="UTF-8"?>
<svg enable-background="new -250 125.9 38.1 38.1" version="1.1" viewBox="-250 125.9 38.1 38.1" xmlns="http://www.w3.org/2000/svg" xmlns:xlink="http://www.w3.org/1999/xlink">
 <style type="text/css">.st0{fill:#0190B0;} .st1{fill:#00A5CB;} .st2{fill:#FFFFFF;} .st3{clip-path:url(#d);} .st4{fill:#DCDBDB;}</style>
 <circle class="st0" cx="-231.1" cy="145" r="18.8"/>
 <path class="st1" d="m-231.1 163.9c-10.4 0-18.8-8.5-18.8-18.9s8.4-18.8 18.8-18.8"/>
 <path class="st2" d="m-220.8 132.7l0.9 0.9c0.8 0.8 0.2 1.7-0.5 2.3-1-0.9-1.9-1.9-2.9-2.8 0.4-0.4 0.7-0.9 1.4-0.9 0.3 0 0.7 0.2 0.9 0.4 0.1 0 0.1 0.1 0.2 0.1z"/>
 <path class="st2" d="m-222 137.6c-1-1-2-1.9-3-2.8l1.2-1.2c1 0.9 2 1.9 3 2.8l-1.2 1.2z"/>
 <defs>
  <path id="c" d="m-222.2 139.1l-0.2 0.2-1.1 1.1c-0.5 0.5-1 1.1-1.5 1.6l-1.9 1.9-2.1 2.1s-1.4 1.4-2 2-1.2 1.2-1.8 1.8l-1.5 1.5-0.9 0.9s-0.5 0.5-0.9 0.6-0.6 0.2-0.9 0.1-0.4-0.4-0.5-0.6c-0.1-0.3-0.3-0.5-0.4-0.8-0.1-0.2-0.3-0.4-0.4-0.6-0.2-0.3-0.5-0.6-0.8-0.8-0.1-0.1-0.3-0.2-0.5-0.2h-0.5c0.3-0.4 0.4-0.8 0.7-1.1 0 0 0-0.1 0.1-0.1v-0.1l-1.1-1.1c-0.1 0 13.3-13.4 13.3-13.4l4.9 5z"/>
 </defs>
 <clipPath id="d">
  <use xlink:href="#c"/>
 </clipPath>
 <g class="st3">
  <path class="st4" d="m-231.3 140.8c-0.7 0.7 1.3 5.1 0.5 5.9l0.8-0.8c0.7-0.7-1.2-5.2-0.5-5.9l-0.8 0.8z"/>
  <path class="st4" d="m-229.9 139.4c-0.7 0.7 1.3 5.1 0.5 5.9l0.8-0.8c0.7-0.7-1.2-5.2-0.5-5.9l-0.8 0.8z"/>
  <path class="st4" d="m-225.8 135.3c-0.7 0.7 1.1 5.3 0.4 6l0.8-0.8c0.7-0.7-1.1-5.4-0.4-6l-0.8 0.8z"/>
  <path class="st4" d="m-224.3 133.8c-0.7 0.7 1.1 5.3 0.4 6l0.8-0.8c0.7-0.7-1.1-5.4-0.4-6l-0.8 0.8z"/>
  <path class="st4" d="m-236.8 146.3c-0.7 0.7 1.3 5.1 0.6 5.8l0.8-0.8c0.7-0.7-1.1-5.3-0.5-5.9l-0.9 0.9z"/>
  <path class="st4" d="m-235.4 144.8c-0.7 0.7 1.4 5.2 0.7 5.9l0.7-0.7c0.7-0.7-1.2-5.3-0.5-6l-0.9 0.8z"/>
  <path class="st2" d="m-230.5 140c0.7-0.7 5.2 1.2 6 0.4l-0.8 0.8c-0.7 0.7-5.3-1.1-6-0.4l0.8-0.8z"/>
  <path class="st2" d="m-229.1 138.6c0.7-0.7 5.3 1.2 6 0.4l-0.8 0.8c-0.7 0.7-5.3-1.1-6-0.4l0.8-0.8z"/>
  <path class="st2" d="m-234.5 144c0.7-0.7 5.2 1.2 5.9 0.5l-0.8 0.8c-0.7 0.7-5.3-1.1-6-0.5l0.9-0.8z"/>
  <path class="st2" d="m-236 145.5c0.7-0.7 5.2 1.2 6 0.4l-0.8 0.8c-0.7 0.7-5.3-1.1-6-0.4l0.8-0.8z"/>
  <path class="st2" d="m-239.6 149.1c0.7-0.7 4.8 1.6 5.6 0.9l-0.7 0.7c-0.7 0.7-5-1.4-5.7-0.7l0.8-0.9z"/>
  <path class="st2" d="m-241.1 150.6c0.7-0.7 4.9 1.5 5.6 0.8l-0.8 0.8c-0.7 0.7-5-1.4-5.7-0.7l0.9-0.9z"/>
 </g>
 <path class="st2" d="m-240.2 150.4c-0.2 0.2-0.8 1.5-1.1 2.1 0.7 0.4 1.2 0.9 1.5 1.6 0.6-0.2 2-0.9 2-0.9 0.1-1-1-2.6-2.4-2.8z"/>
 <path class="st2" d="m-240.1 154.2c-0.3-0.6-0.8-1-1.3-1.3-0.3 0.7-0.6 1.5-1 2.3 0.8-0.4 1.5-0.7 2.3-1z"/>
</svg>
